<mxfile host="app.diagrams.net" modified="2024-03-23T03:07:47.084Z" agent="Mozilla/5.0 (Windows NT 10.0; Win64; x64) AppleWebKit/537.36 (KHTML, like Gecko) Chrome/123.0.0.0 Safari/537.36" etag="2mjk6NOSalW0wWP2SZdn" version="24.0.7" type="github">
  <diagram name="PÃ¡gina-1" id="2m8V6FhZwHOZ2VNkXqWa">
    <mxGraphModel dx="305" dy="164" grid="1" gridSize="10" guides="1" tooltips="1" connect="1" arrows="1" fold="1" page="1" pageScale="1" pageWidth="827" pageHeight="1169" math="0" shadow="0">
      <root>
        <mxCell id="0" />
        <mxCell id="1" parent="0" />
        <mxCell id="zKmw8zsdRDRV4cDCO3nt-3" value="Tienda C." style="whiteSpace=wrap;html=1;align=center;" vertex="1" parent="1">
          <mxGeometry x="364" y="250" width="100" height="40" as="geometry" />
        </mxCell>
        <mxCell id="zKmw8zsdRDRV4cDCO3nt-4" value="Nombre_tienda" style="ellipse;whiteSpace=wrap;html=1;align=center;" vertex="1" parent="1">
          <mxGeometry x="220" y="200" width="100" height="40" as="geometry" />
        </mxCell>
        <mxCell id="zKmw8zsdRDRV4cDCO3nt-5" value="ID_Tienda_C." style="ellipse;whiteSpace=wrap;html=1;align=center;fontStyle=4;" vertex="1" parent="1">
          <mxGeometry x="220" y="150" width="100" height="40" as="geometry" />
        </mxCell>
        <mxCell id="zKmw8zsdRDRV4cDCO3nt-6" value="&lt;span style=&quot;border-bottom: 1px dotted&quot;&gt;ID_producto&lt;/span&gt;" style="ellipse;whiteSpace=wrap;html=1;align=center;" vertex="1" parent="1">
          <mxGeometry x="220" y="350" width="100" height="40" as="geometry" />
        </mxCell>
        <mxCell id="zKmw8zsdRDRV4cDCO3nt-7" value="Direccion" style="ellipse;whiteSpace=wrap;html=1;align=center;" vertex="1" parent="1">
          <mxGeometry x="220" y="250" width="100" height="40" as="geometry" />
        </mxCell>
        <mxCell id="zKmw8zsdRDRV4cDCO3nt-8" value="Logo" style="ellipse;whiteSpace=wrap;html=1;align=center;" vertex="1" parent="1">
          <mxGeometry x="220" y="300" width="100" height="40" as="geometry" />
        </mxCell>
        <mxCell id="zKmw8zsdRDRV4cDCO3nt-12" value="" style="endArrow=none;html=1;rounded=0;" edge="1" parent="1">
          <mxGeometry relative="1" as="geometry">
            <mxPoint x="340" y="370" as="sourcePoint" />
            <mxPoint x="340" y="170" as="targetPoint" />
          </mxGeometry>
        </mxCell>
        <mxCell id="zKmw8zsdRDRV4cDCO3nt-13" value="" style="endArrow=none;html=1;rounded=0;exitX=1;exitY=0.5;exitDx=0;exitDy=0;" edge="1" parent="1" source="zKmw8zsdRDRV4cDCO3nt-5">
          <mxGeometry relative="1" as="geometry">
            <mxPoint x="310" y="169.55" as="sourcePoint" />
            <mxPoint x="340" y="169.55" as="targetPoint" />
          </mxGeometry>
        </mxCell>
        <mxCell id="zKmw8zsdRDRV4cDCO3nt-14" value="" style="endArrow=none;html=1;rounded=0;exitX=1;exitY=0.5;exitDx=0;exitDy=0;" edge="1" parent="1" source="zKmw8zsdRDRV4cDCO3nt-7">
          <mxGeometry relative="1" as="geometry">
            <mxPoint x="340" y="270" as="sourcePoint" />
            <mxPoint x="364" y="269.55" as="targetPoint" />
          </mxGeometry>
        </mxCell>
        <mxCell id="zKmw8zsdRDRV4cDCO3nt-15" value="" style="endArrow=none;html=1;rounded=0;exitX=1;exitY=0.5;exitDx=0;exitDy=0;" edge="1" parent="1">
          <mxGeometry relative="1" as="geometry">
            <mxPoint x="320" y="220" as="sourcePoint" />
            <mxPoint x="340" y="219.55" as="targetPoint" />
          </mxGeometry>
        </mxCell>
        <mxCell id="zKmw8zsdRDRV4cDCO3nt-16" value="" style="endArrow=none;html=1;rounded=0;exitX=1;exitY=0.5;exitDx=0;exitDy=0;" edge="1" parent="1">
          <mxGeometry relative="1" as="geometry">
            <mxPoint x="320" y="320" as="sourcePoint" />
            <mxPoint x="340" y="319.55" as="targetPoint" />
          </mxGeometry>
        </mxCell>
        <mxCell id="zKmw8zsdRDRV4cDCO3nt-17" value="" style="endArrow=none;html=1;rounded=0;exitX=1;exitY=0.5;exitDx=0;exitDy=0;" edge="1" parent="1">
          <mxGeometry relative="1" as="geometry">
            <mxPoint x="320" y="370" as="sourcePoint" />
            <mxPoint x="340" y="369.55" as="targetPoint" />
          </mxGeometry>
        </mxCell>
      </root>
    </mxGraphModel>
  </diagram>
</mxfile>
